<?xml version="1.0" encoding="UTF-8"?>
<svg width="32" height="32" viewBox="0 0 32 32" fill="none" xmlns="http://www.w3.org/2000/svg">
  <!-- Background circle -->
  <circle cx="16" cy="16" r="16" fill="#8f5a39"/>
  
  <!-- People group abstract representation -->
  <path d="M16 8C17.6569 8 19 9.34315 19 11C19 12.6569 17.6569 14 16 14C14.3431 14 13 12.6569 13 11C13 9.34315 14.3431 8 16 8Z" fill="#f4efe7"/>
  <path d="M8 12C9.10457 12 10 12.8954 10 14C10 15.1046 9.10457 16 8 16C6.89543 16 6 15.1046 6 14C6 12.8954 6.89543 12 8 12Z" fill="#f4efe7"/>
  <path d="M24 12C25.1046 12 26 12.8954 26 14C26 15.1046 25.1046 16 24 16C22.8954 16 22 15.1046 22 14C22 12.8954 22.8954 12 24 12Z" fill="#f4efe7"/>
  
  <!-- Connection lines -->
  <path d="M16 15L8 16M16 15L24 16" stroke="#f4efe7" stroke-width="2"/>
  
  <!-- Text representation -->
  <path d="M7 20H25" stroke="#f4efe7" stroke-width="2"/>
  <path d="M10 24H22" stroke="#f4efe7" stroke-width="2"/>
</svg>